<mxfile host="app.diagrams.net" modified="2024-09-21T16:58:19.169Z" agent="Mozilla/5.0 (Macintosh; Intel Mac OS X 10_15_7) AppleWebKit/537.36 (KHTML, like Gecko) Chrome/128.0.0.0 Safari/537.36 Edg/128.0.0.0" etag="0AvLYxBApR0PkYUyzrc1" version="24.7.1" type="github">
  <diagram name="Page-1" id="SZSQWxCE52-ExaFFHALz">
    <mxGraphModel dx="1826" dy="1726" grid="1" gridSize="10" guides="1" tooltips="1" connect="1" arrows="1" fold="1" page="1" pageScale="1" pageWidth="850" pageHeight="1100" math="0" shadow="0">
      <root>
        <mxCell id="0" />
        <mxCell id="1" parent="0" />
        <mxCell id="2" value="Stage 3" style="whiteSpace=wrap;strokeWidth=2;verticalAlign=top;" parent="1" vertex="1">
          <mxGeometry y="748" width="578" height="565" as="geometry" />
        </mxCell>
        <mxCell id="3" value="Manual Intervention" style="rounded=1;absoluteArcSize=1;arcSize=14;whiteSpace=wrap;strokeWidth=2;" parent="1" vertex="1">
          <mxGeometry x="35" y="773" width="158" height="34" as="geometry" />
        </mxCell>
        <mxCell id="4" value="Manual Check" style="rounded=1;absoluteArcSize=1;arcSize=14;whiteSpace=wrap;strokeWidth=2;" parent="1" vertex="1">
          <mxGeometry x="243" y="773" width="113" height="34" as="geometry" />
        </mxCell>
        <mxCell id="5" value="Condition 3" style="rhombus;strokeWidth=2;whiteSpace=wrap;" parent="1" vertex="1">
          <mxGeometry x="235" y="857" width="130" height="130" as="geometry" />
        </mxCell>
        <mxCell id="6" value="Back to Start" style="rounded=1;absoluteArcSize=1;arcSize=14;whiteSpace=wrap;strokeWidth=2;" parent="1" vertex="1">
          <mxGeometry x="140" y="1104" width="108" height="34" as="geometry" />
        </mxCell>
        <mxCell id="7" value="Condition 4" style="rhombus;strokeWidth=2;whiteSpace=wrap;" parent="1" vertex="1">
          <mxGeometry x="319" y="1055" width="130" height="130" as="geometry" />
        </mxCell>
        <mxCell id="8" value="Amber 2" style="whiteSpace=wrap;strokeWidth=2;" parent="1" vertex="1">
          <mxGeometry x="233" y="1254" width="75" height="34" as="geometry" />
        </mxCell>
        <mxCell id="9" value="Green 2" style="rounded=1;absoluteArcSize=1;arcSize=14;whiteSpace=wrap;strokeWidth=2;" parent="1" vertex="1">
          <mxGeometry x="472" y="1254" width="71" height="34" as="geometry" />
        </mxCell>
        <mxCell id="10" value="Stage 2" style="whiteSpace=wrap;strokeWidth=2;verticalAlign=top;" parent="1" vertex="1">
          <mxGeometry x="33" y="217" width="584" height="481" as="geometry" />
        </mxCell>
        <mxCell id="11" value="Condition 1" style="rhombus;strokeWidth=2;whiteSpace=wrap;" parent="1" vertex="1">
          <mxGeometry x="203" y="242" width="130" height="130" as="geometry" />
        </mxCell>
        <mxCell id="12" value="Red 1" style="whiteSpace=wrap;strokeWidth=2;" parent="1" vertex="1">
          <mxGeometry x="87" y="640" width="55" height="34" as="geometry" />
        </mxCell>
        <mxCell id="13" value="Condition 2" style="rhombus;strokeWidth=2;whiteSpace=wrap;" parent="1" vertex="1">
          <mxGeometry x="296" y="441" width="130" height="130" as="geometry" />
        </mxCell>
        <mxCell id="14" value="Amber 1" style="whiteSpace=wrap;strokeWidth=2;" parent="1" vertex="1">
          <mxGeometry x="262" y="640" width="75" height="34" as="geometry" />
        </mxCell>
        <mxCell id="15" value="Green 1" style="rounded=1;absoluteArcSize=1;arcSize=14;whiteSpace=wrap;strokeWidth=2;" parent="1" vertex="1">
          <mxGeometry x="495" y="640" width="71" height="34" as="geometry" />
        </mxCell>
        <mxCell id="16" value="Stage 1" style="whiteSpace=wrap;strokeWidth=2;verticalAlign=top;" parent="1" vertex="1">
          <mxGeometry x="176" y="-10" width="189" height="167" as="geometry" />
        </mxCell>
        <mxCell id="FHfT4nm48_0jhPgFGBlG-32" style="edgeStyle=orthogonalEdgeStyle;rounded=0;orthogonalLoop=1;jettySize=auto;html=1;entryX=0;entryY=0.5;entryDx=0;entryDy=0;shadow=1;" edge="1" parent="1" source="17" target="FHfT4nm48_0jhPgFGBlG-33">
          <mxGeometry relative="1" as="geometry">
            <mxPoint x="520" y="70" as="targetPoint" />
          </mxGeometry>
        </mxCell>
        <mxCell id="17" value="Pre-processing" style="rounded=1;absoluteArcSize=1;arcSize=14;whiteSpace=wrap;strokeWidth=2;" parent="1" vertex="1">
          <mxGeometry x="209" y="109" width="119" height="34" as="geometry" />
        </mxCell>
        <mxCell id="18" value="Input Data" style="whiteSpace=wrap;strokeWidth=2;" parent="1" vertex="1">
          <mxGeometry x="224" y="25" width="90" height="34" as="geometry" />
        </mxCell>
        <mxCell id="19" value="" style="curved=1;startArrow=none;endArrow=block;exitX=0.49;exitY=0.99;entryX=0.5;entryY=-0.01;" parent="1" source="18" target="17" edge="1">
          <mxGeometry relative="1" as="geometry">
            <Array as="points" />
          </mxGeometry>
        </mxCell>
        <mxCell id="20" value="" style="curved=1;startArrow=none;endArrow=block;exitX=0.5;exitY=0.97;entryX=0.5;entryY=0;" parent="1" source="17" target="11" edge="1">
          <mxGeometry relative="1" as="geometry">
            <Array as="points" />
          </mxGeometry>
        </mxCell>
        <mxCell id="21" value="Failure" style="curved=1;startArrow=none;endArrow=block;exitX=0;exitY=0.82;entryX=0.49;entryY=-0.01;" parent="1" source="11" target="12" edge="1">
          <mxGeometry relative="1" as="geometry">
            <Array as="points">
              <mxPoint x="114" y="407" />
            </Array>
          </mxGeometry>
        </mxCell>
        <mxCell id="22" value="Success" style="curved=1;startArrow=none;endArrow=block;exitX=0.97;exitY=1;entryX=0.5;entryY=0;" parent="1" source="11" target="13" edge="1">
          <mxGeometry relative="1" as="geometry">
            <Array as="points">
              <mxPoint x="361" y="407" />
            </Array>
          </mxGeometry>
        </mxCell>
        <mxCell id="23" value="Failure" style="curved=1;startArrow=none;endArrow=block;exitX=0.19;exitY=1;entryX=0.5;entryY=-0.01;" parent="1" source="13" target="14" edge="1">
          <mxGeometry relative="1" as="geometry">
            <Array as="points">
              <mxPoint x="300" y="605" />
            </Array>
          </mxGeometry>
        </mxCell>
        <mxCell id="24" value="Success" style="curved=1;startArrow=none;endArrow=block;exitX=1;exitY=0.79;entryX=0.51;entryY=-0.01;" parent="1" source="13" target="15" edge="1">
          <mxGeometry relative="1" as="geometry">
            <Array as="points">
              <mxPoint x="531" y="605" />
            </Array>
          </mxGeometry>
        </mxCell>
        <mxCell id="25" value="" style="curved=1;startArrow=none;endArrow=block;exitX=0.49;exitY=0.97;entryX=0.5;entryY=0;" parent="1" source="12" target="3" edge="1">
          <mxGeometry relative="1" as="geometry">
            <Array as="points" />
          </mxGeometry>
        </mxCell>
        <mxCell id="26" value="" style="curved=1;startArrow=none;endArrow=block;exitX=0.5;exitY=0.97;entryX=0.5;entryY=0;" parent="1" source="14" target="4" edge="1">
          <mxGeometry relative="1" as="geometry">
            <Array as="points" />
          </mxGeometry>
        </mxCell>
        <mxCell id="27" value="" style="curved=1;startArrow=none;endArrow=block;exitX=0.5;exitY=0.99;entryX=0.5;entryY=0;" parent="1" source="4" target="5" edge="1">
          <mxGeometry relative="1" as="geometry">
            <Array as="points" />
          </mxGeometry>
        </mxCell>
        <mxCell id="28" value="Failure" style="curved=1;startArrow=none;endArrow=block;exitX=0;exitY=0.97;entryX=0.5;entryY=0;" parent="1" source="5" target="6" edge="1">
          <mxGeometry relative="1" as="geometry">
            <Array as="points">
              <mxPoint x="194" y="1021" />
            </Array>
          </mxGeometry>
        </mxCell>
        <mxCell id="29" value="Success" style="curved=1;startArrow=none;endArrow=block;exitX=0.93;exitY=1;entryX=0.5;entryY=0;" parent="1" source="5" target="7" edge="1">
          <mxGeometry relative="1" as="geometry">
            <Array as="points">
              <mxPoint x="384" y="1021" />
            </Array>
          </mxGeometry>
        </mxCell>
        <mxCell id="30" value="Failure" style="curved=1;startArrow=none;endArrow=block;exitX=0;exitY=0.94;entryX=0.5;entryY=0.01;" parent="1" source="7" target="8" edge="1">
          <mxGeometry relative="1" as="geometry">
            <Array as="points">
              <mxPoint x="271" y="1220" />
            </Array>
          </mxGeometry>
        </mxCell>
        <mxCell id="31" value="Success" style="curved=1;startArrow=none;endArrow=block;exitX=0.81;exitY=1.01;entryX=0.22;entryY=0.01;" parent="1" source="7" target="9" edge="1">
          <mxGeometry relative="1" as="geometry">
            <Array as="points">
              <mxPoint x="446" y="1220" />
            </Array>
          </mxGeometry>
        </mxCell>
        <mxCell id="32" value="" style="curved=1;startArrow=none;endArrow=block;exitX=0.51;exitY=0.97;entryX=0.61;entryY=0.01;" parent="1" source="15" target="9" edge="1">
          <mxGeometry relative="1" as="geometry">
            <Array as="points">
              <mxPoint x="531" y="1220" />
            </Array>
          </mxGeometry>
        </mxCell>
        <mxCell id="FHfT4nm48_0jhPgFGBlG-33" value="" style="rounded=0;whiteSpace=wrap;html=1;" vertex="1" parent="1">
          <mxGeometry x="543" y="25" width="120" height="60" as="geometry" />
        </mxCell>
        <mxCell id="FHfT4nm48_0jhPgFGBlG-34" value="" style="rounded=0;whiteSpace=wrap;html=1;" vertex="1" parent="1">
          <mxGeometry x="560" y="59" width="120" height="60" as="geometry" />
        </mxCell>
        <mxCell id="FHfT4nm48_0jhPgFGBlG-35" value="" style="rounded=0;whiteSpace=wrap;html=1;" vertex="1" parent="1">
          <mxGeometry x="590" y="83" width="120" height="60" as="geometry" />
        </mxCell>
      </root>
    </mxGraphModel>
  </diagram>
</mxfile>
